<mxfile host="app.diagrams.net" agent="Mozilla/5.0 (Windows NT 10.0; Win64; x64) AppleWebKit/537.36 (KHTML, like Gecko) Chrome/130.0.0.0 Safari/537.36" version="24.8.3">
  <diagram name="Página-1" id="FAAMQn-m9SiFjRqKq3aK">
    <mxGraphModel dx="1434" dy="780" grid="1" gridSize="10" guides="1" tooltips="1" connect="1" arrows="1" fold="1" page="1" pageScale="1" pageWidth="827" pageHeight="1169" math="0" shadow="0">
      <root>
        <mxCell id="0" />
        <mxCell id="1" parent="0" />
        <mxCell id="2Vm662hCPajCnHyR_HBO-2" value="&lt;font size=&quot;3&quot; face=&quot;Times New Roman&quot;&gt;INÍCIO&lt;/font&gt;" style="ellipse;whiteSpace=wrap;html=1;" vertex="1" parent="1">
          <mxGeometry x="360" y="10" width="120" height="40" as="geometry" />
        </mxCell>
        <mxCell id="2Vm662hCPajCnHyR_HBO-3" value="&lt;font size=&quot;3&quot; face=&quot;Times New Roman&quot;&gt;FIM&lt;/font&gt;" style="ellipse;whiteSpace=wrap;html=1;" vertex="1" parent="1">
          <mxGeometry x="360" y="490" width="120" height="40" as="geometry" />
        </mxCell>
        <mxCell id="2Vm662hCPajCnHyR_HBO-5" value="&lt;font style=&quot;font-size: 10px;&quot;&gt;&amp;nbsp;&lt;/font&gt;&lt;div&gt;&lt;font size=&quot;1&quot; style=&quot;&quot;&gt;L&lt;/font&gt;&lt;font size=&quot;1&quot; style=&quot;&quot;&gt;EITURA&lt;/font&gt;&lt;div&gt;&lt;font size=&quot;1&quot; style=&quot;&quot;&gt;VARIAVEL&amp;nbsp;&amp;nbsp;&lt;/font&gt;&lt;/div&gt;&lt;div&gt;&lt;font size=&quot;1&quot; style=&quot;&quot;&gt;&lt;font face=&quot;Times New Roman&quot;&gt;NUMERO&lt;/font&gt;&lt;/font&gt;&lt;/div&gt;&lt;/div&gt;" style="html=1;strokeWidth=2;shape=manualInput;whiteSpace=wrap;rounded=1;size=26;arcSize=11;" vertex="1" parent="1">
          <mxGeometry x="370" y="70" width="100" height="60" as="geometry" />
        </mxCell>
        <mxCell id="2Vm662hCPajCnHyR_HBO-9" value="" style="strokeWidth=2;html=1;shape=mxgraph.flowchart.decision;whiteSpace=wrap;" vertex="1" parent="1">
          <mxGeometry x="370" y="330" width="100" height="100" as="geometry" />
        </mxCell>
        <mxCell id="2Vm662hCPajCnHyR_HBO-10" style="edgeStyle=orthogonalEdgeStyle;rounded=0;orthogonalLoop=1;jettySize=auto;html=1;exitX=0.5;exitY=1;exitDx=0;exitDy=0;entryX=1;entryY=0.5;entryDx=0;entryDy=0;" edge="1" parent="1" source="2Vm662hCPajCnHyR_HBO-11" target="2Vm662hCPajCnHyR_HBO-3">
          <mxGeometry relative="1" as="geometry" />
        </mxCell>
        <mxCell id="2Vm662hCPajCnHyR_HBO-11" value="" style="ellipse;whiteSpace=wrap;html=1;aspect=fixed;" vertex="1" parent="1">
          <mxGeometry x="680" y="450" width="40" height="40" as="geometry" />
        </mxCell>
        <mxCell id="2Vm662hCPajCnHyR_HBO-19" value="" style="shape=display;whiteSpace=wrap;html=1;" vertex="1" parent="1">
          <mxGeometry x="530" y="365" width="90" height="40" as="geometry" />
        </mxCell>
        <mxCell id="2Vm662hCPajCnHyR_HBO-36" value="&lt;div&gt;&lt;span style=&quot;font-size: 10px;&quot;&gt;&lt;br&gt;&lt;/span&gt;&lt;/div&gt;&lt;span style=&quot;font-size: 10px;&quot;&gt;ME INFORME SEU SEXO&lt;/span&gt;" style="html=1;strokeWidth=2;shape=manualInput;whiteSpace=wrap;rounded=1;size=26;arcSize=11;" vertex="1" parent="1">
          <mxGeometry x="370" y="150" width="100" height="60" as="geometry" />
        </mxCell>
        <mxCell id="2Vm662hCPajCnHyR_HBO-38" value="&lt;div&gt;&lt;span style=&quot;font-size: 10px;&quot;&gt;&lt;br&gt;&lt;/span&gt;&lt;/div&gt;&lt;span style=&quot;font-size: 10px;&quot;&gt;ME INFORME SUA ALTURA&lt;/span&gt;" style="html=1;strokeWidth=2;shape=manualInput;whiteSpace=wrap;rounded=1;size=26;arcSize=11;" vertex="1" parent="1">
          <mxGeometry x="370" y="230" width="100" height="60" as="geometry" />
        </mxCell>
        <mxCell id="2Vm662hCPajCnHyR_HBO-40" style="edgeStyle=orthogonalEdgeStyle;rounded=0;orthogonalLoop=1;jettySize=auto;html=1;exitX=0.5;exitY=1;exitDx=0;exitDy=0;entryX=0.51;entryY=0.167;entryDx=0;entryDy=0;entryPerimeter=0;" edge="1" parent="1" source="2Vm662hCPajCnHyR_HBO-2" target="2Vm662hCPajCnHyR_HBO-5">
          <mxGeometry relative="1" as="geometry" />
        </mxCell>
        <mxCell id="2Vm662hCPajCnHyR_HBO-41" style="edgeStyle=orthogonalEdgeStyle;rounded=0;orthogonalLoop=1;jettySize=auto;html=1;exitX=0.5;exitY=1;exitDx=0;exitDy=0;entryX=0.52;entryY=0.233;entryDx=0;entryDy=0;entryPerimeter=0;" edge="1" parent="1" source="2Vm662hCPajCnHyR_HBO-5" target="2Vm662hCPajCnHyR_HBO-36">
          <mxGeometry relative="1" as="geometry" />
        </mxCell>
        <mxCell id="2Vm662hCPajCnHyR_HBO-46" style="edgeStyle=orthogonalEdgeStyle;rounded=0;orthogonalLoop=1;jettySize=auto;html=1;exitX=0.5;exitY=1;exitDx=0;exitDy=0;entryX=0.51;entryY=0.183;entryDx=0;entryDy=0;entryPerimeter=0;" edge="1" parent="1" source="2Vm662hCPajCnHyR_HBO-36">
          <mxGeometry relative="1" as="geometry">
            <mxPoint x="421" y="240.98000000000002" as="targetPoint" />
          </mxGeometry>
        </mxCell>
      </root>
    </mxGraphModel>
  </diagram>
</mxfile>
